PathFileType	4	(X/Y/Z)	OpenSim_Sub07_CSBaseline_Gyro.trc
DataRate	CameraRate	NumFrames	NumMarkers	Units	OrigDataRate	OrigDataStartFrame	OrigNumFrames
100	100	13	8	m	100	5842	7788
Frame#	Time	torso_imu_offset_imu	pelvis_imu_offset_imu	tibia_r_imu_offset_imu	femur_r_imu_offset_imu	tibia_l_imu_offset_imu	femur_l_imu_offset_imu	toes_r_imu_offset_imu	toes_l_imu_offset_imu
				X1	Y1	Z1	X2	Y2	Z2	X3	Y3	Z3	X4	Y4	Z4	X5	Y5	Z5	X6	Y6	Z6	X7	Y7	Z7	X8		Y8	Z8	

5842	58.41000000	0.07273164	-0.01457621	-0.07873477	-0.05847136	-0.15919248	-0.09881395	-0.15026985	-0.51662328	-1.23111240	-0.32343318	0.17190688	-0.50893842	0.05641159	-0.36600407	-1.25103311	0.37506720	-0.47837004	0.01065178	-0.33257228	-0.53014621	0.28028185	-0.08557597	1.13416194	-1.56299247
5843	58.42000000	0.07469772	-0.03917466	-0.07300552	-0.10428116	-0.14590913	-0.09339779	-0.15693700	-0.53545690	-1.26756372	-0.24240209	0.13755185	-0.48922953	0.17894152	-0.60168232	-0.64451357	0.64238825	-0.34898375	-0.02991696	-0.30930014	-0.62422432	0.31208067	-0.56992192	0.61603276	-1.11790346
5844	58.43000000	0.07130192	-0.06984858	-0.06236294	-0.16103426	-0.15534931	-0.08903334	-0.23104859	-0.51993546	-1.38298081	-0.18912415	0.09169668	-0.47085540	0.03192798	-0.66005036	0.00113025	0.67408004	-0.19466350	-0.18224348	-0.37742109	-0.70583039	0.37648042	-1.03047349	-0.21302290	-0.62418733
5845	58.44000000	0.06801067	-0.09811023	-0.04777098	-0.20430009	-0.16907643	-0.11035123	-0.28609543	-0.55529550	-1.41101121	-0.16881312	0.04338893	-0.44417172	-0.22760322	-0.47178229	0.51669034	0.61839832	-0.11713277	-0.34583138	-0.40505411	-0.78859252	0.45730652	-1.25318784	-1.33661559	-0.13148531
5846	58.45000000	0.07250322	-0.13397493	-0.03637425	-0.19678206	-0.20299871	-0.12666312	-0.32533848	-0.57559337	-1.49791401	-0.18332626	0.03757716	-0.39816509	-0.52430346	-0.21459107	0.95539958	0.51893976	-0.20207471	-0.47749599	-0.45069963	-0.90473193	0.52660939	-1.62810100	-2.28854069	0.23703777
5847	58.46000000	0.06769797	-0.16298342	-0.02380921	-0.16766954	-0.23475833	-0.14151268	-0.38293907	-0.59172632	-1.57155039	-0.25615611	0.09142055	-0.33037507	-0.78350763	-0.01433942	1.35296929	0.26614626	-0.39343459	-0.59621030	-0.50918086	-1.03131055	0.57001967	-2.30261977	-2.87300371	0.36128569
5848	58.47000000	0.08057896	-0.21152680	-0.01262623	-0.17477023	-0.24422657	-0.16165756	-0.43988355	-0.61993645	-1.61909809	-0.35839652	0.13963564	-0.26589054	-1.00084372	0.08924934	1.74590463	-0.13223923	-0.65690100	-0.53762399	-0.55187945	-1.17476982	0.61828032	-1.87331131	-2.76282055	0.09952972
5849	58.48000000	0.10917257	-0.24446549	-0.00085157	-0.18876190	-0.22617537	-0.17881218	-0.53676194	-0.65672829	-1.67808174	-0.46843285	0.14582817	-0.20622673	-1.22232907	-0.00313883	1.97730274	-0.54554105	-0.93394705	-0.24655937	-0.60844198	-1.30567618	0.67830004	-1.11486942	-2.49102506	-0.29151729
5850	58.49000000	0.12891386	-0.27175963	0.02200781	-0.18689919	-0.18999184	-0.18906585	-0.61232701	-0.70557676	-1.73427897	-0.57333306	0.11198699	-0.13605400	-1.27006929	-0.25923682	1.73689668	-0.78971370	-1.12622728	0.12821952	-0.68100009	-1.48684169	0.72458957	-1.54226389	-2.54262855	-0.43860023
5851	58.50000000	0.12145037	-0.31775629	0.03580563	-0.11530876	-0.15980279	-0.18198778	-0.61928327	-0.74955580	-1.83227678	-0.65470959	0.07563893	-0.06432570	-1.11383163	-0.53372346	1.34556242	-0.97850311	-1.12652275	0.37356210	-0.68370057	-1.67216932	0.72410368	-0.81307247	-3.10486217	-0.43191736
5852	58.51000000	0.08748886	-0.35402160	0.02573068	-0.02530818	-0.15055351	-0.19920071	-0.60208670	-0.80531229	-1.91607324	-0.69182561	0.05012432	0.00710431	-0.95623578	-0.45290219	1.17688896	-1.22456339	-0.86503093	0.48890770	-0.70370157	-1.87619182	0.73595497	-0.44482034	-3.10683743	-0.10519893
5853	58.52000000	0.07773808	-0.35481368	-0.00086704	0.03292813	-0.17703237	-0.25407904	-0.58423916	-0.86484804	-2.00028539	-0.67673737	0.02586283	0.09955834	-1.25267300	-0.01920859	1.15858835	-1.29475186	-0.50868040	0.37805514	-0.78586442	-2.07735873	0.80219974	-0.72695973	-2.54044363	0.50664186
5854	58.53000000	0.08175258	-0.32549544	-0.01656819	0.06268507	-0.20695365	-0.21216285	-0.61381660	-0.94102587	-2.10762927	-0.62918745	0.00119057	0.22167609	-1.73651421	0.34914065	1.16879400	-1.24288223	-0.23183618	0.16482563	-0.81374936	-2.33559179	0.86977102	0.01505285	-1.88782590	0.73565876
